<svg 
 xmlns="http://www.w3.org/2000/svg"
 xmlns:xlink="http://www.w3.org/1999/xlink"
 width="360px" height="623px">
<path fill-rule="evenodd"  fill="black"
 d="M331.1000,135.999 L327.000,135.999 L327.000,138.1000 C327.000,139.552 326.552,139.999 325.1000,139.999 L307.1000,139.999 C307.448,139.999 306.1000,139.552 306.1000,138.1000 L306.1000,135.999 L301.1000,135.999 C301.448,135.999 300.1000,135.552 300.1000,134.999 L300.1000,116.1000 C300.1000,116.447 301.448,115.1000 301.1000,115.1000 L306.1000,115.1000 L306.1000,108.1000 C306.1000,108.447 307.448,107.999 307.1000,107.999 L325.1000,107.999 C326.552,107.999 327.000,108.447 327.000,108.1000 L327.000,115.1000 L331.1000,115.1000 C332.552,115.1000 333.000,116.447 333.000,116.1000 L333.000,134.999 C333.000,135.552 332.552,135.999 331.1000,135.999 ZM308.1000,137.999 L325.000,137.999 L325.000,129.1000 L308.1000,129.1000 L308.1000,137.999 ZM325.000,109.999 L308.1000,109.999 L308.1000,115.1000 L325.000,115.1000 L325.000,109.999 ZM331.000,117.1000 L302.1000,117.1000 L302.1000,133.1000 L304.1000,133.1000 L306.1000,133.1000 L306.1000,128.1000 C306.1000,128.447 307.448,127.1000 307.1000,127.1000 L325.1000,127.1000 C326.552,127.1000 327.000,128.447 327.000,128.1000 L327.000,133.1000 L329.000,133.1000 L331.000,133.1000 L331.000,117.1000 ZM325.000,121.1000 L329.000,121.1000 L329.000,125.1000 L325.000,125.1000 L325.000,121.1000 ZM318.1000,121.1000 L322.1000,121.1000 L322.1000,125.1000 L318.1000,125.1000 L318.1000,121.1000 Z"/>
<path fill-rule="evenodd"  fill="black"
 d="M347.541,27.015 L333.367,12.840 C333.106,12.580 333.102,12.160 333.358,11.904 L344.495,0.767 C344.751,0.511 345.171,0.514 345.432,0.775 L345.904,1.248 L346.832,0.320 L348.722,2.210 L347.794,3.138 L349.684,5.028 L352.004,2.708 C352.261,2.451 352.680,2.455 352.941,2.716 L357.666,7.441 C357.927,7.702 357.930,8.121 357.674,8.378 L355.354,10.698 L359.606,14.950 C359.867,15.211 359.871,15.630 359.615,15.887 L348.478,27.024 C348.222,27.280 347.802,27.276 347.541,27.015 ZM356.265,7.897 L352.485,4.117 L350.629,5.973 L354.409,9.753 L356.265,7.897 ZM358.206,15.406 L353.953,11.153 L349.228,6.428 L344.976,2.176 L334.767,12.385 L347.997,25.615 L358.206,15.406 ZM349.271,11.111 C350.836,12.677 350.859,15.193 349.321,16.730 C347.784,18.268 345.268,18.246 343.702,16.680 C342.137,15.114 342.114,12.598 343.652,11.060 C345.189,9.523 347.705,9.545 349.271,11.111 ZM344.630,15.752 C345.674,16.795 347.351,16.811 348.376,15.785 C349.402,14.760 349.386,13.083 348.343,12.039 C347.299,10.995 345.622,10.980 344.597,12.005 C343.571,13.031 343.587,14.708 344.630,15.752 Z"/>
<path fill-rule="evenodd"  fill="black"
 d="M292.862,45.104 L298.050,64.467 C298.145,64.823 297.939,65.189 297.589,65.282 L291.250,66.981 L288.714,67.660 L288.081,67.830 L288.081,67.830 L286.905,68.145 C286.788,68.195 286.657,68.211 286.522,68.170 L276.837,65.214 C276.615,65.146 276.467,64.953 276.405,64.733 L276.382,64.738 L276.209,64.093 L276.036,63.448 L274.307,56.994 L274.134,56.348 L273.961,55.703 L273.984,55.696 C273.927,55.475 273.959,55.233 274.117,55.064 L280.960,47.732 C281.006,47.677 281.059,47.632 281.122,47.594 C281.196,47.541 281.275,47.508 281.361,47.494 L282.546,47.176 L283.180,47.006 L292.055,44.628 C292.405,44.535 292.766,44.748 292.862,45.104 ZM283.526,48.297 L282.892,48.467 L281.797,48.761 L275.319,55.701 L275.401,56.008 L277.477,63.754 L277.559,64.061 L286.639,66.833 L287.101,66.709 L287.735,66.539 L288.369,66.369 L290.904,65.690 L296.609,64.161 L291.767,46.089 L283.526,48.297 ZM280.012,63.074 L279.980,62.955 L279.973,62.953 L279.976,62.939 L277.973,55.464 L277.964,55.454 L277.969,55.449 L277.937,55.329 L278.133,55.277 L281.682,51.555 L282.637,52.556 L282.470,52.731 L282.662,52.679 L283.008,53.970 L284.276,53.631 L284.910,53.461 L285.544,53.291 L287.273,59.745 L287.446,60.391 L287.619,61.036 L285.083,61.716 L285.429,63.007 L285.238,63.058 L285.469,63.126 L285.142,64.470 L280.208,63.022 L280.012,63.074 ZM283.986,62.690 L283.470,60.764 L284.737,60.425 L286.005,60.085 L284.622,54.922 L283.354,55.261 L282.720,55.431 L282.086,55.601 L281.570,53.675 L279.449,55.900 L281.036,61.824 L283.986,62.690 Z"/>
<path fill-rule="evenodd"  fill="black"
 d="M229.238,132.179 C229.307,132.347 229.283,132.782 229.184,133.424 C229.135,133.862 229.061,134.294 228.945,134.718 C227.788,140.352 223.1000,153.124 223.1000,153.124 C223.1000,153.124 211.046,150.018 205.587,148.204 C205.163,148.092 204.751,147.940 204.348,147.764 C203.741,147.528 203.353,147.332 203.242,147.188 C202.102,146.474 201.113,145.482 200.394,144.236 C198.046,140.171 199.439,134.973 203.505,132.625 C206.318,131.001 209.673,131.170 212.251,132.774 C212.151,129.740 213.682,126.749 216.495,125.125 C220.561,122.778 225.759,124.171 228.106,128.237 C228.826,129.483 229.190,130.835 229.238,132.179 ZM217.495,126.858 C217.242,127.004 217.007,127.170 216.781,127.343 C216.723,127.388 216.667,127.433 216.611,127.479 C216.410,127.645 216.218,127.819 216.041,128.005 C216.026,128.021 216.009,128.035 215.994,128.051 C215.800,128.259 215.625,128.479 215.462,128.708 C215.431,128.751 215.402,128.795 215.373,128.839 C215.229,129.051 215.098,129.270 214.981,129.495 L214.964,129.474 C214.964,129.474 214.823,129.800 214.633,130.303 C214.625,130.325 214.614,130.345 214.606,130.368 C214.601,130.382 214.597,130.397 214.592,130.411 C214.201,131.466 213.627,133.251 213.500,134.937 C211.976,134.204 210.143,133.809 209.034,133.620 C209.019,133.617 209.004,133.614 208.989,133.610 C208.966,133.606 208.943,133.606 208.920,133.602 C208.390,133.514 208.036,133.473 208.036,133.473 L208.047,133.499 C207.793,133.488 207.538,133.492 207.282,133.510 C207.229,133.514 207.177,133.517 207.124,133.521 C206.845,133.549 206.566,133.590 206.289,133.654 C206.268,133.659 206.247,133.666 206.226,133.672 C205.976,133.732 205.730,133.811 205.485,133.902 C205.417,133.928 205.350,133.954 205.283,133.981 C205.019,134.090 204.758,134.211 204.505,134.357 C201.396,136.152 200.331,140.128 202.126,143.236 C202.253,143.458 202.395,143.665 202.543,143.866 C202.588,143.925 202.635,143.980 202.681,144.038 C202.793,144.178 202.908,144.313 203.029,144.442 C203.082,144.498 203.136,144.553 203.191,144.607 C203.320,144.734 203.454,144.856 203.593,144.971 C203.640,145.011 203.687,145.052 203.736,145.091 C203.924,145.239 204.119,145.379 204.321,145.505 L204.321,145.505 C204.470,145.597 204.628,145.671 204.783,145.751 C204.782,145.754 204.781,145.768 204.780,145.772 C204.657,146.406 221.888,150.743 222.677,150.833 C222.994,150.104 227.854,133.014 227.243,132.803 C227.239,132.802 227.227,132.796 227.223,132.795 C227.231,132.620 227.247,132.447 227.241,132.272 L227.241,132.272 C227.233,132.034 227.209,131.795 227.175,131.558 C227.166,131.496 227.154,131.436 227.143,131.374 C227.112,131.196 227.075,131.020 227.028,130.844 C227.009,130.769 226.989,130.695 226.966,130.622 C226.916,130.452 226.856,130.285 226.791,130.118 C226.764,130.050 226.740,129.981 226.710,129.913 C226.611,129.684 226.502,129.457 226.374,129.236 C224.579,126.128 220.604,125.062 217.495,126.858 Z"/>
<path fill-rule="evenodd"  fill="black"
 d="M296.383,244.628 L269.355,217.586 C268.857,217.089 268.857,216.282 269.355,215.784 L291.781,193.348 C291.844,193.267 291.913,193.198 291.994,193.134 L292.779,192.348 C293.277,191.851 294.084,191.851 294.581,192.348 L321.610,219.389 C322.108,219.887 322.108,220.695 321.610,221.192 L298.185,244.628 C297.688,245.126 296.881,245.126 296.383,244.628 ZM272.057,216.685 L297.284,241.923 L317.627,221.572 L293.684,221.549 C292.966,221.605 291.440,220.017 291.522,219.386 L291.500,197.233 L272.057,216.685 ZM294.048,219.022 L317.662,219.045 L294.025,195.397 L294.048,219.022 Z"/>
<path fill-rule="evenodd"  fill="black"
 d="M239.953,267.630 L238.575,268.426 C238.574,268.426 238.574,268.427 238.573,268.427 L219.250,279.583 L199.927,290.740 C199.926,290.740 199.926,290.741 199.925,290.741 L198.547,291.536 C197.784,291.977 196.810,291.715 196.369,290.953 L180.432,263.348 C179.992,262.586 180.253,261.611 181.015,261.171 L187.916,257.187 C183.587,249.688 186.008,240.237 193.307,235.702 C193.457,235.609 193.596,235.505 193.750,235.416 C193.904,235.327 194.064,235.259 194.219,235.176 C201.796,231.122 211.191,233.750 215.521,241.249 L222.422,237.265 C223.184,236.825 224.159,237.086 224.599,237.848 L240.537,265.453 C240.977,266.215 240.716,267.190 239.953,267.630 ZM195.344,238.176 C189.246,241.697 187.156,249.495 190.677,255.593 C191.235,256.560 191.910,257.413 192.659,258.172 L192.629,258.177 C192.629,258.177 192.751,258.297 192.978,258.497 C193.546,259.032 194.160,259.505 194.805,259.921 C197.659,261.935 203.229,265.008 210.996,265.287 C214.638,258.421 214.762,252.060 214.445,248.582 C214.407,247.815 214.305,247.048 214.125,246.287 C214.065,245.991 214.022,245.825 214.022,245.825 L214.003,245.849 C213.720,244.821 213.319,243.809 212.761,242.843 C209.240,236.745 201.442,234.656 195.344,238.176 ZM232.198,257.385 L222.636,240.822 L216.853,244.161 C216.936,244.378 219.660,251.653 214.574,265.407 C214.574,265.407 213.393,268.242 212.875,268.541 C212.357,268.840 209.312,268.446 209.312,268.446 C194.856,265.973 189.918,259.976 189.772,259.796 L183.989,263.135 L193.552,279.697 L198.333,287.979 L217.656,276.823 L236.979,265.666 L232.198,257.385 ZM204.906,254.739 C201.857,256.499 197.958,255.455 196.198,252.405 C194.437,249.357 195.482,245.458 198.531,243.697 C201.580,241.937 205.479,242.982 207.240,246.031 C209.000,249.080 207.955,252.979 204.906,254.739 ZM200.125,246.458 C198.600,247.338 198.078,249.287 198.958,250.812 C199.838,252.337 201.788,252.859 203.312,251.979 C204.837,251.098 205.359,249.149 204.479,247.624 C203.599,246.100 201.650,245.577 200.125,246.458 Z"/>
<path fill-rule="evenodd"  fill="black"
 d="M209.240,399.545 L171.454,361.759 C170.759,361.064 170.759,359.936 171.454,359.240 L209.240,321.454 C209.936,320.758 211.064,320.758 211.760,321.454 L213.019,322.714 L213.019,322.714 L215.538,325.232 L215.538,325.232 L220.576,330.271 L220.576,330.271 L223.095,332.790 L223.095,332.790 L236.950,346.645 L236.950,346.645 L239.469,349.164 L239.469,349.164 L244.507,354.202 L244.507,354.202 L247.026,356.721 L247.027,356.721 L249.546,359.240 C250.241,359.936 250.241,361.064 249.545,361.759 L211.759,399.545 C211.064,400.241 209.936,400.241 209.240,399.545 ZM245.767,360.499 L210.500,325.232 L205.462,330.271 L240.729,365.538 L245.767,360.499 ZM235.691,370.576 L236.950,369.316 L238.210,368.057 L202.943,332.790 L201.683,334.049 L200.424,335.309 L197.905,337.828 L197.905,337.828 L175.233,360.499 L210.500,395.766 L233.172,373.095 L233.172,373.095 L235.691,370.576 ZM210.500,373.095 L215.538,378.133 L210.500,383.171 L205.462,378.133 L210.500,373.095 ZM220.576,363.019 L225.614,368.057 L220.576,373.095 L215.538,368.057 L220.576,363.019 ZM201.683,364.278 L206.721,369.316 L201.683,374.354 L196.645,369.316 L201.683,364.278 ZM211.759,354.202 L216.798,359.240 L211.759,364.278 L206.721,359.240 L211.759,354.202 ZM192.866,355.461 L197.905,360.499 L192.866,365.538 L187.828,360.499 L192.866,355.461 ZM202.943,345.385 L207.981,350.423 L202.943,355.461 L197.905,350.423 L202.943,345.385 Z"/>
<path fill-rule="evenodd"  fill="black"
 d="M149.500,530.1000 L149.500,525.250 L183.1000,525.250 L183.1000,530.1000 L149.500,530.1000 ZM128.498,486.391 L152.830,462.059 L160.940,470.170 L136.608,494.502 L128.498,486.391 ZM137.1000,530.1000 L126.500,530.1000 C126.500,530.1000 126.500,530.1000 126.500,530.999 C126.500,511.946 111.054,496.499 91.1000,496.499 C72.946,496.499 57.500,511.946 57.500,530.999 C57.500,530.1000 57.500,530.1000 57.500,530.1000 L46.000,530.1000 C46.000,530.1000 46.000,530.1000 46.000,530.999 C46.000,505.594 66.595,484.999 91.1000,484.999 C117.405,484.999 138.000,505.594 138.000,530.999 C138.000,530.1000 137.1000,530.1000 137.1000,530.1000 ZM86.250,438.1000 L97.750,438.1000 L97.750,473.500 L86.250,473.500 L86.250,438.1000 ZM23.060,470.170 L31.170,462.059 L55.502,486.391 L47.392,494.502 L23.060,470.170 ZM34.500,530.1000 L0.000,530.1000 L0.000,525.250 L34.500,525.250 L34.500,530.1000 Z"/>
</svg>