<svg 
 xmlns="http://www.w3.org/2000/svg"
 xmlns:xlink="http://www.w3.org/1999/xlink"
 width="32px" height="32px">
<defs>
<linearGradient id="PSgrad_0" x1="81.915%" x2="0%" y1="57.358%" y2="0%">
  <stop offset="0%" stop-color="rgb(170,202,41)" stop-opacity="1" />
  <stop offset="100%" stop-color="rgb(27,188,157)" stop-opacity="1" />
</linearGradient>

</defs>
<path fill-rule="evenodd"  fill="rgb(255, 255, 255)"
 d="M31.000,31.1000 L0.1000,31.1000 C0.448,31.1000 -0.000,31.552 -0.000,30.1000 L-0.000,6.1000 C-0.000,6.448 0.448,5.1000 0.1000,5.1000 L1.1000,5.1000 L1.1000,3.1000 L5.1000,3.1000 L5.1000,5.1000 L9.1000,5.1000 L9.1000,0.1000 C9.1000,0.448 10.448,-0.000 10.1000,-0.000 L20.1000,-0.000 C21.552,-0.000 21.1000,0.448 21.1000,0.1000 L21.1000,5.1000 L31.000,5.1000 C31.552,5.1000 32.000,6.448 32.000,6.1000 L32.000,30.1000 C32.000,31.552 31.552,31.1000 31.000,31.1000 ZM19.1000,1.1000 L11.1000,1.1000 L11.1000,5.1000 L19.1000,5.1000 L19.1000,1.1000 ZM30.000,7.1000 L20.1000,7.1000 L10.1000,7.1000 L1.1000,7.1000 L1.1000,29.1000 L30.000,29.1000 L30.000,7.1000 ZM15.1000,12.1000 C19.314,12.1000 21.1000,15.686 21.1000,18.999 C21.1000,22.313 19.314,24.1000 15.1000,24.1000 C12.686,24.1000 9.1000,22.313 9.1000,18.999 C9.1000,15.686 12.686,12.1000 15.1000,12.1000 ZM15.1000,22.1000 C18.209,22.1000 19.1000,21.209 19.1000,18.999 C19.1000,16.791 18.209,14.1000 15.1000,14.1000 C13.791,14.1000 11.1000,16.791 11.1000,18.999 C11.1000,21.209 13.791,22.1000 15.1000,22.1000 Z"/>
<path fill="url(#PSgrad_0)"
 d="M31.000,31.1000 L0.1000,31.1000 C0.448,31.1000 -0.000,31.552 -0.000,30.1000 L-0.000,6.1000 C-0.000,6.448 0.448,5.1000 0.1000,5.1000 L1.1000,5.1000 L1.1000,3.1000 L5.1000,3.1000 L5.1000,5.1000 L9.1000,5.1000 L9.1000,0.1000 C9.1000,0.448 10.448,-0.000 10.1000,-0.000 L20.1000,-0.000 C21.552,-0.000 21.1000,0.448 21.1000,0.1000 L21.1000,5.1000 L31.000,5.1000 C31.552,5.1000 32.000,6.448 32.000,6.1000 L32.000,30.1000 C32.000,31.552 31.552,31.1000 31.000,31.1000 ZM19.1000,1.1000 L11.1000,1.1000 L11.1000,5.1000 L19.1000,5.1000 L19.1000,1.1000 ZM30.000,7.1000 L20.1000,7.1000 L10.1000,7.1000 L1.1000,7.1000 L1.1000,29.1000 L30.000,29.1000 L30.000,7.1000 ZM15.1000,12.1000 C19.314,12.1000 21.1000,15.686 21.1000,18.999 C21.1000,22.313 19.314,24.1000 15.1000,24.1000 C12.686,24.1000 9.1000,22.313 9.1000,18.999 C9.1000,15.686 12.686,12.1000 15.1000,12.1000 ZM15.1000,22.1000 C18.209,22.1000 19.1000,21.209 19.1000,18.999 C19.1000,16.791 18.209,14.1000 15.1000,14.1000 C13.791,14.1000 11.1000,16.791 11.1000,18.999 C11.1000,21.209 13.791,22.1000 15.1000,22.1000 Z"/>
</svg>