<svg 
 xmlns="http://www.w3.org/2000/svg"
 xmlns:xlink="http://www.w3.org/1999/xlink"
 width="20px" height="20px">
<path fill-rule="evenodd"  fill="rgb(255, 255, 255)"
 d="M19.375,16.250 L11.250,16.250 L11.250,16.268 L11.543,16.269 C11.543,16.269 11.434,16.335 11.250,16.446 L11.250,16.455 C11.074,16.560 10.833,16.703 10.540,16.875 L10.533,16.875 C10.328,16.996 10.098,17.132 9.852,17.275 C8.126,18.274 5.585,19.692 4.625,19.956 C4.623,19.957 4.620,19.958 4.617,19.958 C4.519,19.985 4.437,19.1000 4.375,19.1000 L4.375,19.1000 L4.375,19.1000 L3.750,19.1000 L3.125,19.1000 C3.125,19.1000 2.500,19.804 2.500,19.375 C2.500,19.078 2.500,17.698 2.500,16.875 L2.500,16.875 L2.500,16.250 L0.625,16.250 C0.280,16.250 0.000,15.970 0.000,15.625 L0.000,0.625 C0.000,0.279 0.280,-0.001 0.625,-0.001 L19.375,-0.001 C19.720,-0.001 19.1000,0.279 19.1000,0.625 L19.1000,15.625 C19.1000,15.970 19.720,16.250 19.375,16.250 ZM18.750,1.249 L1.250,1.249 L1.250,14.1000 L3.750,14.1000 L3.750,16.250 L3.750,16.250 L3.750,16.252 L3.750,16.252 L3.750,18.749 L3.750,18.749 L3.750,18.749 L3.750,18.749 C3.750,18.749 3.750,18.749 3.750,18.749 C3.851,18.749 3.974,18.730 4.107,18.700 C4.189,18.683 4.280,18.656 4.372,18.629 C4.401,18.621 4.428,18.612 4.458,18.603 C5.608,18.239 7.390,17.225 8.750,16.386 L8.750,16.385 C9.435,15.968 9.902,15.664 9.902,15.664 C9.923,15.647 9.940,15.636 9.960,15.621 C10.233,15.443 10.433,15.309 10.539,15.235 C10.729,15.132 10.881,15.073 10.995,15.042 C11.131,15.014 11.250,14.1000 11.250,14.1000 L18.750,14.1000 L18.750,1.249 Z"/>
</svg>