<svg 
 xmlns="http://www.w3.org/2000/svg"
 xmlns:xlink="http://www.w3.org/1999/xlink"
 width="20px" height="17px">
<path fill-rule="evenodd"  fill="rgb(255, 255, 255)"
 d="M19.380,7.577 C19.365,7.686 19.217,7.907 18.962,8.216 C18.799,8.431 18.623,8.635 18.429,8.823 C16.041,11.434 9.1000,16.1000 9.1000,16.1000 C9.1000,16.1000 3.959,11.434 1.571,8.823 C1.377,8.635 1.201,8.431 1.038,8.216 C0.783,7.907 0.634,7.686 0.620,7.577 C0.225,6.856 -0.000,6.034 -0.000,5.160 C-0.000,2.310 2.378,-0.001 5.312,-0.001 C7.343,-0.001 9.106,1.107 9.1000,2.733 C10.894,1.107 12.657,-0.001 14.687,-0.001 C17.621,-0.001 19.1000,2.310 19.1000,5.160 C19.1000,6.034 19.775,6.856 19.380,7.577 ZM14.687,1.214 C14.504,1.214 14.326,1.230 14.149,1.252 C14.104,1.258 14.059,1.265 14.015,1.273 C13.854,1.299 13.696,1.332 13.542,1.376 C13.529,1.379 13.515,1.382 13.502,1.386 C13.332,1.436 13.168,1.499 13.009,1.570 C12.978,1.583 12.949,1.597 12.919,1.611 C12.775,1.679 12.636,1.755 12.502,1.838 L12.500,1.821 C12.500,1.821 12.321,1.950 12.062,2.157 C12.051,2.166 12.038,2.173 12.027,2.183 C12.020,2.189 12.013,2.195 12.006,2.202 C11.464,2.638 10.595,3.401 9.1000,4.250 C9.404,3.401 8.536,2.638 7.994,2.202 C7.987,2.195 7.980,2.189 7.973,2.183 C7.962,2.173 7.949,2.166 7.938,2.157 C7.679,1.950 7.500,1.821 7.500,1.821 L7.498,1.838 C7.364,1.755 7.225,1.679 7.081,1.611 C7.051,1.597 7.022,1.583 6.991,1.570 C6.832,1.499 6.668,1.436 6.498,1.386 C6.485,1.382 6.471,1.379 6.458,1.376 C6.304,1.332 6.146,1.299 5.985,1.273 C5.941,1.265 5.896,1.258 5.851,1.252 C5.674,1.230 5.496,1.214 5.312,1.214 C3.069,1.214 1.250,2.981 1.250,5.160 C1.250,5.316 1.262,5.468 1.279,5.618 C1.285,5.662 1.293,5.706 1.300,5.750 C1.317,5.858 1.337,5.964 1.362,6.068 C1.373,6.114 1.385,6.159 1.398,6.204 C1.428,6.311 1.463,6.415 1.502,6.518 C1.515,6.553 1.528,6.589 1.542,6.624 C1.598,6.760 1.659,6.892 1.729,7.019 L1.729,7.019 C1.781,7.113 1.844,7.200 1.902,7.289 C1.901,7.291 1.896,7.298 1.895,7.299 C1.630,7.595 9.601,15.107 9.1000,15.394 C10.399,15.107 18.370,7.595 18.105,7.299 C18.104,7.298 18.099,7.291 18.097,7.289 C18.156,7.200 18.219,7.113 18.271,7.019 L18.271,7.019 C18.341,6.892 18.402,6.760 18.458,6.624 C18.472,6.589 18.485,6.553 18.498,6.518 C18.537,6.415 18.572,6.311 18.602,6.204 C18.614,6.159 18.627,6.114 18.638,6.068 C18.663,5.964 18.683,5.858 18.700,5.750 C18.707,5.706 18.715,5.662 18.720,5.618 C18.738,5.468 18.750,5.316 18.750,5.160 C18.750,2.981 16.931,1.214 14.687,1.214 Z"/>
</svg>