<svg 
 xmlns="http://www.w3.org/2000/svg"
 xmlns:xlink="http://www.w3.org/1999/xlink"
 width="32px" height="32px">
<defs>
<linearGradient id="PSgrad_0" x1="81.915%" x2="0%" y1="57.358%" y2="0%">
  <stop offset="0%" stop-color="rgb(170,202,41)" stop-opacity="1" />
  <stop offset="100%" stop-color="rgb(27,188,157)" stop-opacity="1" />
</linearGradient>

</defs>
<path fill-rule="evenodd"  fill="rgb(255, 255, 255)"
 d="M30.1000,7.1000 L27.1000,7.1000 L27.1000,30.1000 C27.1000,31.552 27.552,31.1000 26.1000,31.1000 L4.1000,31.1000 C4.448,31.1000 3.1000,31.552 3.1000,30.1000 L3.1000,7.1000 L0.1000,7.1000 C0.448,7.1000 -0.000,7.552 -0.000,6.1000 C-0.000,6.448 0.448,5.1000 0.1000,5.1000 L7.1000,5.1000 L7.1000,0.1000 C7.1000,0.448 8.448,-0.000 8.1000,-0.000 L22.1000,-0.000 C23.552,-0.000 23.1000,0.448 23.1000,0.1000 L23.1000,5.1000 L30.1000,5.1000 C31.552,5.1000 31.1000,6.448 31.1000,6.1000 C31.1000,7.552 31.552,7.1000 30.1000,7.1000 ZM21.1000,1.1000 L9.1000,1.1000 L9.1000,5.1000 L21.1000,5.1000 L21.1000,1.1000 ZM25.1000,7.1000 L22.1000,7.1000 L8.1000,7.1000 L5.1000,7.1000 L5.1000,29.1000 L25.1000,29.1000 L25.1000,7.1000 ZM11.1000,25.1000 L9.1000,25.1000 L9.1000,11.999 L11.1000,11.999 L11.1000,25.1000 ZM16.1000,25.1000 L14.1000,25.1000 L14.1000,11.999 L16.1000,11.999 L16.1000,25.1000 ZM21.1000,25.1000 L19.1000,25.1000 L19.1000,11.999 L21.1000,11.999 L21.1000,25.1000 Z"/>
<path fill="url(#PSgrad_0)"
 d="M30.1000,7.1000 L27.1000,7.1000 L27.1000,30.1000 C27.1000,31.552 27.552,31.1000 26.1000,31.1000 L4.1000,31.1000 C4.448,31.1000 3.1000,31.552 3.1000,30.1000 L3.1000,7.1000 L0.1000,7.1000 C0.448,7.1000 -0.000,7.552 -0.000,6.1000 C-0.000,6.448 0.448,5.1000 0.1000,5.1000 L7.1000,5.1000 L7.1000,0.1000 C7.1000,0.448 8.448,-0.000 8.1000,-0.000 L22.1000,-0.000 C23.552,-0.000 23.1000,0.448 23.1000,0.1000 L23.1000,5.1000 L30.1000,5.1000 C31.552,5.1000 31.1000,6.448 31.1000,6.1000 C31.1000,7.552 31.552,7.1000 30.1000,7.1000 ZM21.1000,1.1000 L9.1000,1.1000 L9.1000,5.1000 L21.1000,5.1000 L21.1000,1.1000 ZM25.1000,7.1000 L22.1000,7.1000 L8.1000,7.1000 L5.1000,7.1000 L5.1000,29.1000 L25.1000,29.1000 L25.1000,7.1000 ZM11.1000,25.1000 L9.1000,25.1000 L9.1000,11.999 L11.1000,11.999 L11.1000,25.1000 ZM16.1000,25.1000 L14.1000,25.1000 L14.1000,11.999 L16.1000,11.999 L16.1000,25.1000 ZM21.1000,25.1000 L19.1000,25.1000 L19.1000,11.999 L21.1000,11.999 L21.1000,25.1000 Z"/>
</svg>