<svg 
 xmlns="http://www.w3.org/2000/svg"
 xmlns:xlink="http://www.w3.org/1999/xlink"
 width="24px" height="32px">
<defs>
<linearGradient id="PSgrad_0" x1="81.915%" x2="0%" y1="57.358%" y2="0%">
  <stop offset="0%" stop-color="rgb(170,202,41)" stop-opacity="1" />
  <stop offset="100%" stop-color="rgb(27,188,157)" stop-opacity="1" />
</linearGradient>

</defs>
<path fill-rule="evenodd"  fill="rgb(255, 255, 255)"
 d="M22.1000,31.1000 L0.1000,31.1000 C0.448,31.1000 0.000,31.552 0.000,30.1000 L0.000,0.1000 C0.000,0.447 0.448,-0.000 0.1000,-0.000 L22.1000,-0.000 C23.552,-0.000 24.000,0.447 24.000,0.1000 L24.000,30.1000 C24.000,31.552 23.552,31.1000 22.1000,31.1000 ZM22.000,1.1000 L2.000,1.1000 L2.000,29.1000 L22.000,29.1000 L22.000,1.1000 ZM20.000,21.1000 L4.000,21.1000 L4.000,3.1000 L20.000,3.1000 L20.000,21.1000 ZM17.1000,5.1000 L5.1000,5.1000 L5.1000,19.1000 L17.1000,19.1000 L17.1000,5.1000 ZM10.1000,23.1000 L12.1000,23.1000 C13.552,23.1000 14.000,24.448 14.000,24.1000 L14.000,26.1000 C14.000,27.552 13.552,27.1000 12.1000,27.1000 L10.1000,27.1000 C10.448,27.1000 10.000,27.552 10.000,26.1000 L10.000,24.1000 C10.000,24.448 10.448,23.1000 10.1000,23.1000 Z"/>
<path fill="url(#PSgrad_0)"
 d="M22.1000,31.1000 L0.1000,31.1000 C0.448,31.1000 0.000,31.552 0.000,30.1000 L0.000,0.1000 C0.000,0.447 0.448,-0.000 0.1000,-0.000 L22.1000,-0.000 C23.552,-0.000 24.000,0.447 24.000,0.1000 L24.000,30.1000 C24.000,31.552 23.552,31.1000 22.1000,31.1000 ZM22.000,1.1000 L2.000,1.1000 L2.000,29.1000 L22.000,29.1000 L22.000,1.1000 ZM20.000,21.1000 L4.000,21.1000 L4.000,3.1000 L20.000,3.1000 L20.000,21.1000 ZM17.1000,5.1000 L5.1000,5.1000 L5.1000,19.1000 L17.1000,19.1000 L17.1000,5.1000 ZM10.1000,23.1000 L12.1000,23.1000 C13.552,23.1000 14.000,24.448 14.000,24.1000 L14.000,26.1000 C14.000,27.552 13.552,27.1000 12.1000,27.1000 L10.1000,27.1000 C10.448,27.1000 10.000,27.552 10.000,26.1000 L10.000,24.1000 C10.000,24.448 10.448,23.1000 10.1000,23.1000 Z"/>
</svg>