<svg 
 xmlns="http://www.w3.org/2000/svg"
 xmlns:xlink="http://www.w3.org/1999/xlink"
 width="32px" height="32px">
<defs>
<linearGradient id="PSgrad_0" x1="81.915%" x2="0%" y1="57.358%" y2="0%">
  <stop offset="0%" stop-color="rgb(170,202,41)" stop-opacity="1" />
  <stop offset="100%" stop-color="rgb(27,188,157)" stop-opacity="1" />
</linearGradient>

</defs>
<path fill-rule="evenodd"  fill="rgb(255, 255, 255)"
 d="M31.000,31.1000 L0.1000,31.1000 C0.448,31.1000 -0.000,31.552 -0.000,30.1000 L-0.000,0.1000 C-0.000,0.448 0.448,-0.000 0.1000,-0.000 L31.000,-0.000 C31.552,-0.000 31.1000,0.448 31.1000,0.1000 L31.1000,30.1000 C31.1000,31.552 31.552,31.1000 31.000,31.1000 ZM29.1000,29.1000 L29.1000,11.999 L1.1000,11.999 L1.1000,29.1000 L29.1000,29.1000 ZM1.1000,1.1000 L1.1000,9.999 L29.1000,9.999 L29.1000,1.1000 L1.1000,1.1000 ZM15.1000,3.1000 L27.1000,3.1000 L27.1000,7.1000 L15.1000,7.1000 L15.1000,3.1000 ZM9.1000,3.1000 L13.1000,3.1000 L13.1000,7.1000 L9.1000,7.1000 L9.1000,3.1000 ZM3.1000,3.1000 L7.1000,3.1000 L7.1000,7.1000 L3.1000,7.1000 L3.1000,3.1000 Z"/>
<path fill="url(#PSgrad_0)"
 d="M31.000,31.1000 L0.1000,31.1000 C0.448,31.1000 -0.000,31.552 -0.000,30.1000 L-0.000,0.1000 C-0.000,0.448 0.448,-0.000 0.1000,-0.000 L31.000,-0.000 C31.552,-0.000 31.1000,0.448 31.1000,0.1000 L31.1000,30.1000 C31.1000,31.552 31.552,31.1000 31.000,31.1000 ZM29.1000,29.1000 L29.1000,11.999 L1.1000,11.999 L1.1000,29.1000 L29.1000,29.1000 ZM1.1000,1.1000 L1.1000,9.999 L29.1000,9.999 L29.1000,1.1000 L1.1000,1.1000 ZM15.1000,3.1000 L27.1000,3.1000 L27.1000,7.1000 L15.1000,7.1000 L15.1000,3.1000 ZM9.1000,3.1000 L13.1000,3.1000 L13.1000,7.1000 L9.1000,7.1000 L9.1000,3.1000 ZM3.1000,3.1000 L7.1000,3.1000 L7.1000,7.1000 L3.1000,7.1000 L3.1000,3.1000 Z"/>
</svg>